<svg xmlns="http://www.w3.org/2000/svg" width="291" height="50" viewBox="0 0 291 50"><style>.a{fill:#36417b}.b{fill:#afb2b2}</style><path d="M15.9 22.2c-1.1 0-2 .5-2.7 1.4-.7.9-1 2.1-1 3.7 0 1.8.3 3.1 1 4 .7.9 1.6 1.4 2.8 1.4 1.2 0 2.1-.5 2.8-1.4.6-.8.9-2.2.9-4 0-1.6-.3-2.8-1-3.8-.6-.8-1.5-1.3-2.8-1.3z" class="a"/><path d="M25 0C11.2 0 0 11.2 0 25s11.2 25 25 25 25-11.2 25-25S38.8 0 25 0zm-.8 28.6c0 3.1-.9 5.2-2.7 6.3-1.8 1.1-3.8 1.6-5.9 1.6-1.1 0-2.2-.2-3.3-.6-1.1-.4-2-1-2.7-1.8-1.3-1.7-2-3.9-2-6.7 0-2.7.7-4.9 2-6.7 1.3-1.7 3-2.6 5.1-2.6 1.1 0 2.1.2 2.9.7.9.5 1.6 1.2 2.1 2v-5.3c0-.6.2-1.1.7-1.6.4-.4 1-.7 1.6-.7h2.2v15.4zm15.7 5.5c-.7.8-1.5 1.4-2.7 1.8-1.1.4-2.2.6-3.3.6-2.1 0-4.1-.5-5.9-1.6-1.8-1.1-2.7-3.2-2.7-6.3V13.4h2.2c.6 0 1.1.2 1.6.7.4.4.7 1 .7 1.6V21c.5-.8 1.2-1.5 2.1-2 .8-.4 1.8-.7 2.9-.7 2.1 0 3.8.9 5.1 2.6 1.3 1.7 2 3.9 2 6.7 0 2.5-.7 4.8-2 6.5z" class="a"/><path d="M33.7 22.1c-1.2 0-2.2.4-2.8 1.3-.7.9-1 2.2-1 3.8 0 1.8.3 3.2.9 4 .7.9 1.6 1.4 2.8 1.4 1.2 0 2.2-.5 2.8-1.4.7-.9 1-2.3 1-4 0-1.6-.3-2.8-1-3.7-.7-.9-1.6-1.4-2.7-1.4z" class="a"/><path d="M72.9 10.3h-8.4c-.8 0-1.6.3-2.2.9-.6.6-.9 1.3-.9 2.2v26h9.9c2.8 0 4.8-.2 6.2-.6 1.4-.4 2.7-1.1 4-2 1.5-1.1 2.7-2.8 3.6-4.9.8-2.1 1.2-4.4 1.2-7 0-4.8-1.1-8.5-3.3-11-2.3-2.5-5.6-3.6-10.1-3.6zm5.4 21.6c-1.3 1.5-3.3 2.2-6.1 2.2h-4.8V15.3H73c2.5 0 4.3.8 5.4 2.3 1.2 1.5 1.8 3.9 1.8 7.2 0 3.4-.7 5.7-1.9 7.1zm18.8-15.6c-3.2 0-5.7 1-7.6 3.1-1.8 2-2.6 4.8-2.6 8.5 0 3.8.9 6.7 2.7 8.7 1.8 2.1 4.3 3.1 7.6 3.1 2.7 0 4.9-.6 6.6-1.9 1.8-1.2 2.9-3 3.6-5.4h-4.2c-.7 0-1.2.1-1.6.4-.4.3-.6.5-.6.7l-.5.5c-.1.1-.3.2-.5.3-.7.4-1.5.6-2.5.6-1.5 0-2.6-.5-3.3-1.4-.8-.8-1.2-2.1-1.3-3.9h14.7c.1-.1.1-.3.1-.6v-.9c0-3.7-.9-6.6-2.7-8.7-1.8-2-4.5-3.1-7.9-3.1zM93 25.8c.1-1.5.5-2.6 1.3-3.4.8-.8 1.8-1.2 3.1-1.2 1.4 0 2.4.4 3.1 1.2.7.7 1.1 1.9 1.2 3.4H93zm27.6-.3c-.2 0-.5 0-.7-.1-.3-.1-.6-.1-.9-.3-2.9-.6-4.4-1.4-4.4-2.3 0-.7.3-1.2.8-1.5.6-.3 1.4-.5 2.5-.5 1.2 0 2.1.3 2.8.8l.7.7c.6 1 1.4 1.4 2.5 1.4h3.7c-.1-2.3-1-4.1-2.6-5.5-1.8-1.3-4.1-1.9-7-1.9-2.7 0-4.9.6-6.6 1.9-1.6 1.4-2.5 3.2-2.5 5.3 0 1.7.6 3 1.7 4.1 1 1 3 1.9 6 2.6.5.2 1.3.3 2.3.5 2.4.5 3.6 1.3 3.6 2.3 0 .7-.3 1.2-1 1.6-.7.4-1.6.6-2.6.6-1.4 0-2.5-.3-3.4-.8-.8-.6-1.2-1.4-1.3-2.5h-5.8v.3c0 2.5.8 4.4 2.5 5.7 1.6 1.3 4 1.9 7.2 1.9 3.4 0 5.9-.6 7.6-1.9 1.8-1.4 2.7-3.3 2.7-5.7 0-1.7-.5-3-1.6-4.1-1.3-1-3.3-1.8-6.2-2.6zm20.8 0l8.1-8.6h-7.1l-7.2 8.3V13c0-.7-.3-1.4-.8-1.9-.6-.6-1.2-.8-2-.8h-3.1v29.1h5.9v-8.5c0-.5.3-.8.9-1 .6-.2 1.4.4 2.2 1.9l4.2 7.6h7.1l-8.2-13.9z" fill="#36417A"/><path d="M169.1 19.7c-1.7-2.2-3.9-3.3-6.5-3.3-1.5 0-2.7.3-3.7.8-1.2.7-2.1 1.5-2.7 2.6v-6.7c0-.8-.3-1.5-.8-2-.6-.6-1.2-.8-2-.8h-2.9v19.3c0 4 1.2 6.7 3.5 8.1 2.3 1.4 4.8 2.1 7.5 2.1 1.4 0 2.8-.2 4.3-.7 1.4-.5 2.6-1.3 3.4-2.3 1.7-2.2 2.5-5 2.5-8.5-.1-3.6-.9-6.4-2.6-8.6zm-4.6 13.4c-.8 1.2-2.1 1.8-3.6 1.8s-2.7-.6-3.5-1.8c-.8-1.1-1.2-2.8-1.2-5.1 0-2 .4-3.6 1.3-4.8.8-1.1 2.1-1.7 3.6-1.7s2.6.6 3.5 1.8c.8 1.1 1.3 2.7 1.3 4.7-.1 2.2-.5 3.9-1.4 5.1zM191.4 21.5c-1-2.1-2.6-3.5-4.7-4.4-1.9-.7-3.9-.9-6.3-.5-2.3.3-4.2 1.3-5.7 3-.9 1-1.6 2.3-2 3.8-.4 1.5-.6 3-.6 4.6 0 1.9.3 3.6.8 5.4.5 1.7 1.4 3.1 2.5 4.1 1.1 1 2.6 1.7 4.5 2.2 1.9.4 3.8.4 5.6-.1 2.1-.5 3.8-1.6 5.2-3.5.6-.9 1.1-2 1.5-3.3.4-1.3.6-2.8.6-4.6.1-2.7-.4-4.9-1.4-6.7zM186 32.9c-.7 1-1.5 1.6-2.3 1.9-.9.3-1.7.2-2.6-.1-.8-.3-1.4-.7-1.8-1.1-.8-1-1.3-2.8-1.4-5.4-.1-2.6.4-4.5 1.6-5.8.4-.4 1-.7 1.9-1 .8-.3 1.7-.2 2.5 0 .8.3 1.6.9 2.2 1.9.6 1 1 2.5 1 4.6-.1 2.4-.4 4-1.1 5zM212.5 21.5c-1-2.1-2.6-3.5-4.7-4.4-1.9-.7-3.9-.9-6.2-.5-2.3.3-4.2 1.3-5.7 3-.9 1-1.6 2.3-2 3.8-.4 1.5-.6 3-.6 4.6 0 1.9.3 3.6.8 5.4.5 1.7 1.4 3.1 2.5 4.1 1.1 1 2.6 1.7 4.5 2.2 1.9.4 3.8.4 5.6-.1 2.1-.5 3.8-1.6 5.2-3.5.6-.9 1.1-2 1.5-3.3.4-1.3.6-2.8.6-4.6 0-2.7-.5-4.9-1.5-6.7zm-5.4 11.4c-.7 1-1.4 1.6-2.3 1.9-.9.3-1.7.2-2.6-.1-.8-.3-1.4-.7-1.8-1.1-.8-1-1.3-2.8-1.4-5.4-.1-2.6.4-4.5 1.6-5.8.4-.4 1-.7 1.9-1 .8-.3 1.7-.2 2.5 0 .8.3 1.6.9 2.2 1.9.6 1 1 2.5 1 4.6 0 2.4-.4 4-1.1 5zM235.1 16.9H228l-7.2 8.3V13.1c0-.7-.3-1.4-.8-1.9-.6-.6-1.2-.8-2-.8h-3v29h5.9v-8.5c0-.5.3-.8.9-1 .6-.2 1.4.4 2.2 1.9l4.1 7.6h7.1l-8.1-13.8 8-8.7z" class="b"/><path d="M250.7 19.4c-1.9-2-4.5-3-7.9-3-3.2 0-5.7 1-7.5 3.1-1.7 2-2.6 4.8-2.6 8.4 0 3.8.9 6.7 2.7 8.7 1.8 2.1 4.3 3.1 7.5 3.1 2.6 0 4.8-.6 6.6-1.9 1.7-1.2 2.9-3 3.5-5.4h-4.2c-.7 0-1.2.1-1.6.4-.4.3-.6.5-.6.7l-.5.5c-.1.1-.3.2-.5.3-.7.4-1.5.6-2.4.6-1.5 0-2.6-.5-3.3-1.3-.8-.8-1.2-2.1-1.3-3.9h14.6c.1-.1.1-.3.1-.6v-.9c.1-3.8-.8-6.7-2.6-8.8zm-12 6.4c.1-1.5.5-2.6 1.3-3.4.8-.8 1.8-1.2 3-1.2 1.4 0 2.4.4 3.1 1.2.7.7 1.1 1.9 1.2 3.4h-8.6zM261.7 17.5c-1.4.4-2.7 1-3.8 1.9-1.1.9-2 2.1-2.7 3.6-.6 1.5-1 3.3-1 5.5v10.9h5.9V27.8c0-1.7.4-2.9 1.2-3.7.8-.8 2-1.2 3.6-1.2h1.9v-6h-.8c-1.4 0-2.9.2-4.3.6zM286.4 28.1c-1.1-1-3.1-1.8-6-2.5-.2 0-.5 0-.7-.1-.3-.1-.5-.1-.9-.3-2.9-.6-4.4-1.4-4.4-2.3 0-.7.3-1.2.8-1.5.6-.3 1.4-.5 2.5-.5 1.2 0 2.1.3 2.8.8.2.2.4.5.7.7.6 1 1.4 1.4 2.5 1.4h3.6c-.1-2.2-1-4.1-2.6-5.5-1.7-1.3-4.1-1.9-7-1.9-2.7 0-4.9.6-6.6 1.9-1.6 1.4-2.4 3.2-2.4 5.3 0 1.7.6 3 1.7 4 1 1 3 1.9 6 2.6.5.2 1.3.3 2.3.5 2.4.5 3.5 1.3 3.5 2.3 0 .7-.3 1.2-1 1.6-.7.4-1.6.6-2.6.6-1.4 0-2.5-.3-3.4-.8-.8-.6-1.2-1.4-1.3-2.5h-5.7v.3c0 2.5.8 4.4 2.4 5.6 1.6 1.3 4 1.9 7.2 1.9 3.4 0 5.9-.6 7.6-1.9 1.8-1.3 2.7-3.3 2.7-5.7-.1-1.6-.6-3-1.7-4z" class="b"/></svg>